<svg width="20" height="26" viewBox="0 0 20 26" fill="none" xmlns="http://www.w3.org/2000/svg">
<path d="M0.165218 10.9025C0.0724506 10.292 0.0145741 9.62259 1.90735e-06 8.872C0.00559044 5.65355 1.48701 4.51471 1.77205 3.98081C1.35224 1.54223 1.84157 0.432991 2.06916 0.0532691C2.90856 -0.256593 4.98958 0.853022 6.12661 1.63414C7.98046 1.06977 11.8982 1.12486 13.3674 1.78022C16.0781 -0.238449 17.5119 0.0693489 17.5119 0.0693489C17.5119 0.0693489 18.4387 1.79793 17.7569 4.32675C18.6488 5.50877 19.3136 6.34449 19.3136 8.56122C19.3136 9.09212 19.2819 9.5938 19.2281 10.0765C18.46 14.2767 15.2598 16.0887 12.1164 16.4012C12.5894 16.775 13.1573 17.4824 13.2359 18.302C13.8302 18.7017 15.0258 18.8338 15.9555 18.5298C17.2582 18.1018 17.7569 15.4189 19.7077 15.8016C20.1298 15.8838 20.0459 16.1733 19.6804 16.4202C19.086 16.8211 18.5263 17.3194 18.0948 18.3859C17.7635 19.2046 17.0665 20.6665 14.8629 20.6665C13.9882 20.6665 13.3755 20.559 13.3755 20.559C13.3755 20.559 13.3588 22.6453 13.3588 23.459C13.3588 24.3955 14.574 24.6584 14.574 25.1077C14.574 25.2863 14.1718 25.3033 13.8486 25.3033C13.2098 25.3033 11.8807 24.7499 11.8807 23.7766C11.8807 23.0032 11.8689 20.4042 11.8689 19.949C11.8689 18.9545 11.3564 18.6378 11.3564 18.6378C11.3564 18.6378 11.2937 23.9467 11.4797 24.6585C11.6979 25.4955 12.0932 25.3766 12.0932 25.7491C12.0932 26.3049 10.4954 25.885 9.96541 24.6682C9.55542 23.7178 9.73903 18.5116 9.73903 18.5116L9.31159 18.502C9.31159 18.502 9.30668 20.8863 9.32141 21.9756C9.33682 23.1039 9.44876 24.5302 8.8044 25.2034C8.38146 25.6461 7.08574 26.423 7.08574 25.713C7.08574 25.3016 7.9931 24.9616 7.9931 23.8469V18.7118C7.44187 18.7118 7.32795 20.3997 7.32795 20.3997L7.12925 23.5356C7.12925 23.5356 7.26119 24.68 5.94061 25.1575C5.47441 25.3273 4.47711 25.3735 4.43036 25.0885C4.3835 24.8027 5.63122 24.3802 5.64308 23.4945C5.6495 22.9551 5.61983 22.6394 5.61983 20.293C5.61983 17.948 5.92274 17.0805 6.97829 16.3891C3.91731 16.0624 0.737967 14.6407 0.165218 10.9025Z" fill="#3A3A3A"/>
</svg>
